solid OBJECT
  facet normal 0.30151134457776352 0.2190608145118238 -0.92795650147855813
    outer loop
      vertex 0 0 -40
      vertex 7.2654252800536101 22.360679774997898 -32.360679774997898
      vertex 23.511410091698927 0 -32.360679774997898
    endloop
  endfacet
  facet normal -0.11516708563502429 0.35444784348336705 -0.92795650147855813
    outer loop
      vertex 0 0 -40
      vertex -19.021130325903073 13.819660112501056 -32.360679774997898
      vertex 7.2654252800536101 22.360679774997898 -32.360679774997898
    endloop
  endfacet
  facet normal -0.37268851788547835 0 -0.92795650147855813
    outer loop
      vertex 0 0 -40
      vertex -19.021130325903073 -13.819660112501051 -32.360679774997898
      vertex -19.021130325903073 13.819660112501056 -32.360679774997898
    endloop
  endfacet
  facet normal -0.11516708563502444 -0.35444784348336705 -0.92795650147855813
    outer loop
      vertex 0 0 -40
      vertex 7.2654252800536048 -22.360679774997902 -32.360679774997898
      vertex -19.021130325903073 -13.819660112501051 -32.360679774997898
    endloop
  endfacet
  facet normal 0.30151134457776352 -0.21906081451182385 -0.92795650147855813
    outer loop
      vertex 0 0 -40
      vertex 23.511410091698927 0 -32.360679774997898
      vertex 7.2654252800536048 -22.360679774997902 -32.360679774997898
    endloop
  endfacet
  facet normal 0.69745656233305509 0.50673185397138643 -0.50673185397138631
    outer loop
      vertex 23.511410091698927 0 -32.360679774997898
      vertex 7.2654252800536101 22.360679774997898 -32.360679774997898
      vertex 11.755705045849462 36.180339887498945 -12.360679774997898
    endloop
  endfacet
  facet normal 0.69745656233305531 0.50673185397138654 -0.50673185397138631
    outer loop
      vertex 23.511410091698927 0 -32.360679774997898
      vertex 11.755705045849462 36.180339887498945 -12.360679774997898
      vertex 38.042260651806139 0 -12.360679774997898
    endloop
  endfacet
  facet normal -0.26640470113456738 0.81990936290795191 -0.50673185397138631
    outer loop
      vertex 7.2654252800536101 22.360679774997898 -32.360679774997898
      vertex -19.021130325903073 13.819660112501056 -32.360679774997898
      vertex -30.776835371752526 22.360679774997898 -12.360679774997898
    endloop
  endfacet
  facet normal -0.26640470113456743 0.8199093629079518 -0.50673185397138643
    outer loop
      vertex 7.2654252800536101 22.360679774997898 -32.360679774997898
      vertex -30.776835371752526 22.360679774997898 -12.360679774997898
      vertex 11.755705045849462 36.180339887498945 -12.360679774997898
    endloop
  endfacet
  facet normal -0.86210372239697552 0 -0.50673185397138643
    outer loop
      vertex -19.021130325903073 13.819660112501056 -32.360679774997898
      vertex -19.021130325903073 -13.819660112501051 -32.360679774997898
      vertex -30.776835371752533 -22.360679774997891 -12.360679774997898
    endloop
  endfacet
  facet normal -0.86210372239697564 1.3697292380749428e-16 -0.5067318539713862
    outer loop
      vertex -19.021130325903073 13.819660112501056 -32.360679774997898
      vertex -30.776835371752533 -22.360679774997891 -12.360679774997898
      vertex -30.776835371752526 22.360679774997898 -12.360679774997898
    endloop
  endfacet
  facet normal -0.26640470113456771 -0.8199093629079518 -0.5067318539713862
    outer loop
      vertex -19.021130325903073 -13.819660112501051 -32.360679774997898
      vertex 7.2654252800536048 -22.360679774997902 -32.360679774997898
      vertex 11.755705045849453 -36.180339887498945 -12.360679774997898
    endloop
  endfacet
  facet normal -0.26640470113456755 -0.8199093629079518 -0.50673185397138643
    outer loop
      vertex -19.021130325903073 -13.819660112501051 -32.360679774997898
      vertex 11.755705045849453 -36.180339887498945 -12.360679774997898
      vertex -30.776835371752533 -22.360679774997891 -12.360679774997898
    endloop
  endfacet
  facet normal 0.69745656233305531 -0.50673185397138665 -0.50673185397138631
    outer loop
      vertex 7.2654252800536048 -22.360679774997902 -32.360679774997898
      vertex 23.511410091698927 0 -32.360679774997898
      vertex 38.042260651806139 0 -12.360679774997898
    endloop
  endfacet
  facet normal 0.69745656233305531 -0.50673185397138676 -0.50673185397138631
    outer loop
      vertex 7.2654252800536048 -22.360679774997902 -32.360679774997898
      vertex 38.042260651806139 0 -12.360679774997898
      vertex 11.755705045849453 -36.180339887498945 -12.360679774997898
    endloop
  endfacet
  facet normal 0.80901699437494734 0.58778525229247303 -2.3252812908490971e-16
    outer loop
      vertex 38.042260651806139 0 -12.360679774997898
      vertex 11.755705045849462 36.180339887498945 -12.360679774997898
      vertex 11.755705045849464 36.180339887498953 12.360679774997894
    endloop
  endfacet
  facet normal 0.80901699437494734 0.58778525229247303 -2.3252812908490966e-16
    outer loop
      vertex 38.042260651806139 0 -12.360679774997898
      vertex 11.755705045849464 36.180339887498953 12.360679774997894
      vertex 38.042260651806146 0 12.360679774997894
    endloop
  endfacet
  facet normal -0.3090169943749474 0.95105651629515364 -2.2549444698928295e-16
    outer loop
      vertex 11.755705045849462 36.180339887498945 -12.360679774997898
      vertex -30.776835371752526 22.360679774997898 -12.360679774997898
      vertex -30.776835371752533 22.360679774997902 12.360679774997894
    endloop
  endfacet
  facet normal -0.30901699437494745 0.95105651629515364 -2.5114874954603774e-16
    outer loop
      vertex 11.755705045849462 36.180339887498945 -12.360679774997898
      vertex -30.776835371752533 22.360679774997902 12.360679774997894
      vertex 11.755705045849464 36.180339887498953 12.360679774997894
    endloop
  endfacet
  facet normal -1 1.588821858078255e-16 -1.4371028711489716e-16
    outer loop
      vertex -30.776835371752526 22.360679774997898 -12.360679774997898
      vertex -30.776835371752533 -22.360679774997891 -12.360679774997898
      vertex -30.776835371752536 -22.360679774997894 12.360679774997894
    endloop
  endfacet
  facet normal -1 7.9441092903912736e-17 -2.8742057422979441e-16
    outer loop
      vertex -30.776835371752526 22.360679774997898 -12.360679774997898
      vertex -30.776835371752536 -22.360679774997894 12.360679774997894
      vertex -30.776835371752533 22.360679774997902 12.360679774997894
    endloop
  endfacet
  facet normal -0.30901699437494756 -0.95105651629515353 -2.0566142147515031e-16
    outer loop
      vertex -30.776835371752533 -22.360679774997891 -12.360679774997898
      vertex 11.755705045849453 -36.180339887498945 -12.360679774997898
      vertex 11.755705045849457 -36.180339887498953 12.360679774997894
    endloop
  endfacet
  facet normal -0.30901699437494762 -0.95105651629515364 -1.810855260042767e-16
    outer loop
      vertex -30.776835371752533 -22.360679774997891 -12.360679774997898
      vertex 11.755705045849457 -36.180339887498953 12.360679774997894
      vertex -30.776835371752536 -22.360679774997894 12.360679774997894
    endloop
  endfacet
  facet normal 0.80901699437494734 -0.58778525229247325 -2.3252812908490966e-16
    outer loop
      vertex 11.755705045849453 -36.180339887498945 -12.360679774997898
      vertex 38.042260651806139 0 -12.360679774997898
      vertex 38.042260651806146 0 12.360679774997894
    endloop
  endfacet
  facet normal 0.80901699437494734 -0.58778525229247314 -2.8520563928016206e-16
    outer loop
      vertex 11.755705045849453 -36.180339887498945 -12.360679774997898
      vertex 38.042260651806146 0 12.360679774997894
      vertex 11.755705045849457 -36.180339887498953 12.360679774997894
    endloop
  endfacet
  facet normal 0.69745656233305531 0.50673185397138654 0.50673185397138665
    outer loop
      vertex 38.042260651806146 0 12.360679774997894
      vertex 11.755705045849464 36.180339887498953 12.360679774997894
      vertex 7.265425280053611 22.360679774997902 32.360679774997891
    endloop
  endfacet
  facet normal 0.69745656233305531 0.50673185397138643 0.50673185397138654
    outer loop
      vertex 38.042260651806146 0 12.360679774997894
      vertex 7.265425280053611 22.360679774997902 32.360679774997891
      vertex 23.511410091698931 0 32.360679774997891
    endloop
  endfacet
  facet normal -0.26640470113456749 0.8199093629079518 0.50673185397138654
    outer loop
      vertex 11.755705045849464 36.180339887498953 12.360679774997894
      vertex -30.776835371752533 22.360679774997902 12.360679774997894
      vertex -19.021130325903073 13.819660112501058 32.360679774997891
    endloop
  endfacet
  facet normal -0.26640470113456738 0.8199093629079518 0.50673185397138665
    outer loop
      vertex 11.755705045849464 36.180339887498953 12.360679774997894
      vertex -19.021130325903073 13.819660112501058 32.360679774997891
      vertex 7.265425280053611 22.360679774997902 32.360679774997891
    endloop
  endfacet
  facet normal -0.86210372239697564 6.8486461903747127e-17 0.50673185397138654
    outer loop
      vertex -30.776835371752533 22.360679774997902 12.360679774997894
      vertex -30.776835371752536 -22.360679774997894 12.360679774997894
      vertex -19.021130325903076 -13.819660112501053 32.360679774997891
    endloop
  endfacet
  facet normal -0.86210372239697552 9.5712740222017648e-17 0.50673185397138654
    outer loop
      vertex -30.776835371752533 22.360679774997902 12.360679774997894
      vertex -19.021130325903076 -13.819660112501053 32.360679774997891
      vertex -19.021130325903073 13.819660112501058 32.360679774997891
    endloop
  endfacet
  facet normal -0.2664047011345676 -0.8199093629079518 0.50673185397138654
    outer loop
      vertex -30.776835371752536 -22.360679774997894 12.360679774997894
      vertex 11.755705045849457 -36.180339887498953 12.360679774997894
      vertex 7.2654252800536057 -22.360679774997905 32.360679774997891
    endloop
  endfacet
  facet normal -0.26640470113456766 -0.8199093629079518 0.50673185397138654
    outer loop
      vertex -30.776835371752536 -22.360679774997894 12.360679774997894
      vertex 7.2654252800536057 -22.360679774997905 32.360679774997891
      vertex -19.021130325903076 -13.819660112501053 32.360679774997891
    endloop
  endfacet
  facet normal 0.69745656233305509 -0.50673185397138654 0.50673185397138643
    outer loop
      vertex 11.755705045849457 -36.180339887498953 12.360679774997894
      vertex 38.042260651806146 0 12.360679774997894
      vertex 23.511410091698931 0 32.360679774997891
    endloop
  endfacet
  facet normal 0.6974565623330552 -0.50673185397138654 0.50673185397138643
    outer loop
      vertex 11.755705045849457 -36.180339887498953 12.360679774997894
      vertex 23.511410091698931 0 32.360679774997891
      vertex 7.2654252800536057 -22.360679774997905 32.360679774997891
    endloop
  endfacet
  facet normal 0.30151134457776374 0.21906081451182396 0.92795650147855813
    outer loop
      vertex 23.511410091698931 0 32.360679774997891
      vertex 7.265425280053611 22.360679774997902 32.360679774997891
      vertex 0 0 40
    endloop
  endfacet
  facet normal -0.11516708563502437 0.35444784348336728 0.92795650147855802
    outer loop
      vertex 7.265425280053611 22.360679774997902 32.360679774997891
      vertex -19.021130325903073 13.819660112501058 32.360679774997891
      vertex 0 0 40
    endloop
  endfacet
  facet normal -0.37268851788547863 4.790478147237154e-17 0.92795650147855813
    outer loop
      vertex -19.021130325903073 13.819660112501058 32.360679774997891
      vertex -19.021130325903076 -13.819660112501053 32.360679774997891
      vertex 0 0 40
    endloop
  endfacet
  facet normal -0.11516708563502451 -0.35444784348336728 0.92795650147855813
    outer loop
      vertex -19.021130325903076 -13.819660112501053 32.360679774997891
      vertex 7.2654252800536057 -22.360679774997905 32.360679774997891
      vertex 0 0 40
    endloop
  endfacet
  facet normal 0.30151134457776374 -0.21906081451182396 0.92795650147855813
    outer loop
      vertex 7.2654252800536057 -22.360679774997905 32.360679774997891
      vertex 23.511410091698931 0 32.360679774997891
      vertex 0 0 40
    endloop
  endfacet
endsolid OBJECT
